<?xml version="1.0" encoding="utf-8"?>
<!-- Feedback icon - modern two-tone gradient bubble with subtle drop shadow; usable as fallback image -->
<svg xmlns="http://www.w3.org/2000/svg" width="48" height="48" viewBox="0 0 24 24" role="img" aria-labelledby="feedbackTitle">
  <title id="feedbackTitle">Feedback</title>
  <defs>
    <linearGradient id="fb-grad" x1="0%" y1="0%" x2="100%" y2="100%">
      <stop offset="0%" stop-color="#6EA8FF" />
      <stop offset="100%" stop-color="#2B6BFF" />
    </linearGradient>
    <filter id="fb-ds" x="-20%" y="-20%" width="140%" height="140%">
      <feOffset dx="0" dy="1" result="off" />
      <feGaussianBlur in="off" stdDeviation="1" result="blur" />
      <feColorMatrix in="blur" type="matrix" values="0 0 0 0 0  0 0 0 0 0.164  0 0 0 0 0.882  0 0 0 0.15 0" result="shadow"/>
      <feBlend in="SourceGraphic" in2="shadow" mode="normal" />
    </filter>
  </defs>

  <!-- filled bubble with gradient and drop shadow -->
  <g filter="url(#fb-ds)">
    <path d="M20 7a3 3 0 0 0-3-3H5a3 3 0 0 0-3 3v8a3 3 0 0 0 3 3h8.2l2.9 2.2V7z" fill="url(#fb-grad)" />
  </g>

  <!-- subtle highlight -->
  <path d="M6 6.2c1.2-1 3-1.6 5-1.6 1.7 0 3.2.4 4.2 1" fill="none" stroke="#ffffff" stroke-opacity="0.12" stroke-width="0.8" stroke-linecap="round" />

  <!-- three dots, white -->
  <circle cx="9.5" cy="11" r="0.9" fill="#FFFFFF" opacity="0.98" />
  <circle cx="12" cy="11" r="0.9" fill="#FFFFFF" opacity="0.98" />
  <circle cx="14.5" cy="11" r="0.9" fill="#FFFFFF" opacity="0.98" />

  <!-- accessibility stroke outline (almost invisible) to keep crisp edges when used as img -->
  <path d="M20 7a3 3 0 0 0-3-3H5a3 3 0 0 0-3 3v8a3 3 0 0 0 3 3h8.2l2.9 2.2V7z" fill="none" stroke="#000000" stroke-opacity="0.05" stroke-width="0.5" stroke-linecap="round" stroke-linejoin="round" />
</svg>
